<?xml version="1.0" encoding="UTF-8" standalone="no"?>
<!-- Generator: Adobe Illustrator 19.0.0, SVG Export Plug-In . SVG Version: 6.00 Build 0)  -->

<svg
   version="1.1"
   id="Layer_1"
   x="0px"
   y="0px"
   viewBox="0 0 511.867 511.867"
   style="enable-background:new 0 0 511.867 511.867;"
   xml:space="preserve"
   sodipodi:docname="arrow-up-light.svg"
   inkscape:version="1.2 (1:1.2.1+202207142221+cd75a1ee6d)"
   xmlns:inkscape="http://www.inkscape.org/namespaces/inkscape"
   xmlns:sodipodi="http://sodipodi.sourceforge.net/DTD/sodipodi-0.dtd"
   xmlns="http://www.w3.org/2000/svg"
   xmlns:svg="http://www.w3.org/2000/svg"><defs
   id="defs3703" /><sodipodi:namedview
   id="namedview3701"
   pagecolor="#ffffff"
   bordercolor="#000000"
   borderopacity="0.25"
   inkscape:showpageshadow="2"
   inkscape:pageopacity="0.0"
   inkscape:pagecheckerboard="0"
   inkscape:deskcolor="#d1d1d1"
   showgrid="false"
   inkscape:zoom="1.6508194"
   inkscape:cx="134.78155"
   inkscape:cy="255.9335"
   inkscape:window-width="1920"
   inkscape:window-height="1044"
   inkscape:window-x="1920"
   inkscape:window-y="0"
   inkscape:window-maximized="1"
   inkscape:current-layer="Layer_1" />
<g
   id="g3668"
   style="fill:#dae1e9;fill-opacity:1">
	<g
   id="g3666"
   style="fill:#dae1e9;fill-opacity:1">
		<path
   d="M508.827,350.027L263.493,104.373c-4.267-4.053-10.88-4.053-15.147,0L3.12,350.027c-4.16,4.16-4.16,10.88,0,15.04    l42.24,42.347c4.267,4.053,10.88,4.053,15.147,0L255.92,211.68l195.52,195.733c4.16,4.16,10.88,4.16,15.04,0l42.347-42.347    C512.88,360.907,512.88,354.187,508.827,350.027z M459.013,384.8l-195.52-195.733c-4.16-4.16-10.88-4.16-15.04,0L52.933,384.8    l-27.2-27.307L255.92,126.987l230.293,230.507L459.013,384.8z"
   id="path3664"
   style="fill:#dae1e9;fill-opacity:1" />
	</g>
</g>
<g
   id="g3670">
</g>
<g
   id="g3672">
</g>
<g
   id="g3674">
</g>
<g
   id="g3676">
</g>
<g
   id="g3678">
</g>
<g
   id="g3680">
</g>
<g
   id="g3682">
</g>
<g
   id="g3684">
</g>
<g
   id="g3686">
</g>
<g
   id="g3688">
</g>
<g
   id="g3690">
</g>
<g
   id="g3692">
</g>
<g
   id="g3694">
</g>
<g
   id="g3696">
</g>
<g
   id="g3698">
</g>
</svg>
