<?xml version="1.0" encoding="UTF-8" standalone="no"?>
<!-- Generator: Adobe Illustrator 19.0.0, SVG Export Plug-In . SVG Version: 6.00 Build 0)  -->

<svg
   version="1.1"
   id="Layer_1"
   x="0px"
   y="0px"
   viewBox="0 0 512.04 512.04"
   style="enable-background:new 0 0 512.04 512.04;"
   xml:space="preserve"
   sodipodi:docname="arrow-down-dark.svg"
   inkscape:version="1.2 (1:1.2.1+202207142221+cd75a1ee6d)"
   xmlns:inkscape="http://www.inkscape.org/namespaces/inkscape"
   xmlns:sodipodi="http://sodipodi.sourceforge.net/DTD/sodipodi-0.dtd"
   xmlns="http://www.w3.org/2000/svg"
   xmlns:svg="http://www.w3.org/2000/svg"><defs
   id="defs114" /><sodipodi:namedview
   id="namedview112"
   pagecolor="#ffffff"
   bordercolor="#000000"
   borderopacity="0.25"
   inkscape:showpageshadow="2"
   inkscape:pageopacity="0.0"
   inkscape:pagecheckerboard="0"
   inkscape:deskcolor="#d1d1d1"
   showgrid="false"
   inkscape:zoom="1.6502618"
   inkscape:cx="134.82709"
   inkscape:cy="256.01999"
   inkscape:window-width="1920"
   inkscape:window-height="1044"
   inkscape:window-x="1920"
   inkscape:window-y="0"
   inkscape:window-maximized="1"
   inkscape:current-layer="Layer_1" />
<g
   id="g79"
   style="fill:#373a36;fill-opacity:1">
	<g
   id="g77"
   style="fill:#373a36;fill-opacity:1">
		<path
   d="M508.933,146.807l-42.347-42.347c-4.267-4.053-10.88-4.053-15.147,0L256.027,300.193L60.507,104.46    c-4.267-4.053-10.88-4.053-15.147,0L3.12,146.807c-4.16,4.16-4.16,10.88,0,15.04L248.453,407.5c4.16,4.16,10.88,4.16,15.04,0    l245.333-245.653C513.093,157.687,513.093,150.967,508.933,146.807z M256.027,384.887L25.733,154.38l27.2-27.307l195.52,195.733    c4.267,4.053,10.88,4.053,15.147,0l195.52-195.733l27.2,27.307L256.027,384.887z"
   id="path75"
   style="fill:#373a36;fill-opacity:1" />
	</g>
</g>
<g
   id="g81">
</g>
<g
   id="g83">
</g>
<g
   id="g85">
</g>
<g
   id="g87">
</g>
<g
   id="g89">
</g>
<g
   id="g91">
</g>
<g
   id="g93">
</g>
<g
   id="g95">
</g>
<g
   id="g97">
</g>
<g
   id="g99">
</g>
<g
   id="g101">
</g>
<g
   id="g103">
</g>
<g
   id="g105">
</g>
<g
   id="g107">
</g>
<g
   id="g109">
</g>
</svg>
