<?xml version="1.0" encoding="UTF-8"?>
<svg id="Layer_3" data-name="Layer 3" xmlns="http://www.w3.org/2000/svg" xmlns:xlink="http://www.w3.org/1999/xlink" viewBox="0 0 1920 1080">
  <defs>
    <style>
      .cls-1 {
        fill: none;
      }

      .cls-2 {
        clip-path: url(#clippath);
      }

      .cls-3 {
        fill: #dae1e9;
      }

      .cls-4 {
        fill: #5c7f95;
      }

      .cls-5 {
        clip-path: url(#clippath-1);
      }
    </style>
    <clipPath id="clippath">
      <rect class="cls-1" x="1612.64" y="294.4" width="209.59" height="491.2"/>
    </clipPath>
    <clipPath id="clippath-1">
      <rect class="cls-1" x="1398.88" y="294.4" width="209.59" height="491.2"/>
    </clipPath>
  </defs>
  <g>
    <path class="cls-3" d="M98.04,679.45l3.87-11.61c.15-.45,.23-.92,.23-1.4v-248.93c0-.47-.07-.93-.22-1.37l-3.93-12.03c-.93-2.86,1.2-5.8,4.21-5.8h117.46c1.15,0,2.26,.45,3.08,1.25l21.53,20.86c.86,.83,1.35,1.98,1.35,3.18v126.94c0,1.17-.47,2.3-1.3,3.13l-21.13,21.13c-1.08,1.08-1.53,2.64-1.18,4.13l20.14,86.78c.05,.21,.11,.42,.19,.62l5.06,12.91c1.14,2.9-1,6.05-4.12,6.05h-47.2c-2.85,0-4.96-2.66-4.31-5.44l2.64-11.3c.16-.67,.16-1.36,0-2.03l-20.15-85.46-3.78-4.53h-15.48l-5.66,5.66v84.24c0,.48,.08,.95,.23,1.4l3.87,11.61c.96,2.87-1.18,5.83-4.2,5.83h-46.99c-3.02,0-5.16-2.96-4.2-5.83Zm93.97-150.5l5.66-5.29v-71.74l-5.66-5.29h-37.01l-5.66,5.29v71.74l5.66,5.29h37.01Z"/>
    <path class="cls-3" d="M416.49,423.56v236.09c0,1.17-.47,2.3-1.3,3.13l-21.19,21.19c-.83,.83-1.96,1.3-3.13,1.3h-91.89c-1.16,0-2.28-.46-3.11-1.27l-21.55-21.21c-.85-.83-1.32-1.97-1.32-3.16v-236.05c0-1.2,.49-2.35,1.35-3.18l21.53-20.86c.83-.8,1.93-1.25,3.08-1.25h91.93c1.16,0,2.28,.46,3.11,1.27l21.17,20.84c.85,.83,1.32,1.97,1.32,3.16Zm-54,23.07h-36.25l-5.66,5.29v180.12l5.66,5.29h36.25l5.66-5.29v-180.12l-5.66-5.29Z"/>
    <path class="cls-3" d="M446.98,398.29h117.42c1.15,0,2.26,.45,3.08,1.25l21.53,20.86c.86,.83,1.35,1.98,1.35,3.18v89.9c0,1.2-.49,2.35-1.35,3.18l-19.94,19.33c-1.79,1.73-1.8,4.59-.02,6.34l19.99,19.69c.85,.83,1.32,1.97,1.32,3.16v94.47c0,1.19-.48,2.32-1.32,3.16l-21.55,21.21c-.83,.82-1.94,1.27-3.11,1.27h-117.44c-3.01,0-5.14-2.94-4.21-5.8l3.93-12.03c.14-.44,.22-.91,.22-1.37v-248.93c0-.48-.08-.95-.23-1.4l-3.87-11.61c-.96-2.87,1.18-5.83,4.2-5.83Zm47.47,111.77l5.66,5.29h36.63l5.66-5.29v-58.91l-5.66-5.66h-36.63l-5.66,5.66v58.91Zm42.29,53.24h-36.63l-5.66,5.67v62.3l5.66,5.66h36.63l5.66-5.66v-62.3l-5.66-5.67Z"/>
    <path class="cls-3" d="M761.22,423.56v236.09c0,1.17-.47,2.3-1.3,3.13l-21.19,21.19c-.83,.83-1.96,1.3-3.13,1.3h-91.89c-1.16,0-2.28-.46-3.11-1.27l-21.55-21.21c-.85-.83-1.32-1.97-1.32-3.16v-236.05c0-1.2,.49-2.35,1.35-3.18l21.53-20.86c.83-.8,1.93-1.25,3.08-1.25h91.93c1.16,0,2.28,.46,3.11,1.27l21.17,20.84c.85,.83,1.32,1.97,1.32,3.16Zm-54,23.07h-36.25l-5.66,5.29v180.12l5.66,5.29h36.25l5.66-5.29v-180.12l-5.66-5.29Z"/>
    <path class="cls-3" d="M940.19,450.2l-13.23-3.43c-.36-.09-.74-.14-1.11-.14h-35.31l-5.29,5.29v214.52c0,.48,.08,.95,.23,1.4l3.87,11.61c.96,2.87-1.18,5.83-4.2,5.83h-47.75c-3.02,0-5.16-2.96-4.2-5.83l3.87-11.61c.15-.45,.23-.92,.23-1.4v-214.52l-5.66-5.29h-36.04c-.39,0-.78,.05-1.15,.15l-12.45,3.35c-3.1,.84-6.04-1.81-5.52-4.98l6.98-43.13c.35-2.14,2.2-3.72,4.37-3.72h146.18c2.16,0,4.01,1.56,4.37,3.69l7.3,43.19c.54,3.17-2.37,5.83-5.48,5.03Z"/>
    <path class="cls-3" d="M1011.07,685.28h-46.99c-3.02,0-5.16-2.96-4.2-5.83l3.87-11.61c.15-.45,.23-.92,.23-1.4v-248.93c0-.47-.07-.93-.22-1.37l-3.93-12.03c-.93-2.86,1.2-5.8,4.21-5.8h47.07c3.01,0,5.14,2.94,4.21,5.8l-3.93,12.03c-.14,.44-.22,.91-.22,1.37v248.93c0,.48,.08,.95,.23,1.4l3.87,11.61c.96,2.87-1.18,5.83-4.2,5.83Z"/>
    <path class="cls-3" d="M1041.55,659.63v-236.05c0-1.2,.49-2.35,1.35-3.18l21.53-20.86c.83-.8,1.93-1.25,3.08-1.25h91.93c1.16,0,2.28,.46,3.11,1.27l21.17,20.84c.85,.83,1.32,1.97,1.32,3.16v45.76c0,.48,.08,.95,.23,1.4l3.87,11.61c.96,2.87-1.18,5.83-4.2,5.83h-47.63c-3.06,0-5.2-3.03-4.17-5.91l4.07-11.5c.17-.47,.25-.97,.25-1.48v-18.12l-5.29-5.66h-37.38l-5.66,5.66v180.12l5.66,5.66h37.38l5.29-5.66v-17.74c0-.5-.09-1-.25-1.48l-4.07-11.5c-1.02-2.88,1.12-5.91,4.17-5.91h47.63c3.02,0,5.16,2.96,4.2,5.83l-3.87,11.61c-.15,.45-.23,.92-.23,1.4v46.16c0,1.17-.47,2.3-1.3,3.13l-21.19,21.19c-.83,.83-1.96,1.3-3.13,1.3h-91.89c-1.16,0-2.28-.46-3.11-1.27l-21.55-21.21c-.85-.83-1.32-1.97-1.32-3.16Z"/>
    <path class="cls-3" d="M1359.07,488.92h-47.75c-2.99,0-5.12-2.9-4.23-5.75l3.67-11.73c.13-.43,.2-.87,.2-1.32v-18.2l-5.66-5.29h-36.63l-5.66,5.29v60.42l5.66,5.66h64.62c1.17,0,2.3,.47,3.13,1.3l21.19,21.19c.83,.83,1.3,1.96,1.3,3.13v116.03c0,1.17-.47,2.3-1.3,3.13l-21.19,21.19c-.83,.83-1.96,1.3-3.13,1.3h-91.93c-1.14,0-2.23-.44-3.06-1.23l-22.27-21.25c-.88-.84-1.37-1.99-1.37-3.2v-45.81c0-.42-.06-.84-.18-1.24l-3.46-11.85c-.83-2.83,1.3-5.67,4.25-5.67h47.61c3.02,0,5.16,2.96,4.2,5.83l-3.87,11.61c-.15,.45-.23,.92-.23,1.4v18.16l5.66,5.29h36.63l5.66-5.29v-60.42l-5.66-5.67h-63.91c-1.15,0-2.26-.45-3.08-1.25l-22.29-21.61c-.86-.83-1.35-1.98-1.35-3.18v-116.29c0-1.22,.51-2.39,1.4-3.23l22.24-20.9c.82-.77,1.91-1.2,3.03-1.2h91.97c1.16,0,2.28,.46,3.11,1.27l21.17,20.84c.85,.83,1.32,1.97,1.32,3.16v46.47c0,.5,.09,1,.25,1.48l4.07,11.5c1.02,2.88-1.12,5.91-4.17,5.91Z"/>
  </g>
  <g>
    <g id="_Mirror_Repeat_" data-name="&amp;lt;Mirror Repeat&amp;gt;">
      <g class="cls-2">
        <g>
          <path class="cls-4" d="M1822.23,324.05c0,56.72,0,113.44,0,170.16-11.17,15.18-22.35,29.58-33.52,43.2,11.18,13.52,22.35,27.83,33.52,42.91,0,58.54,0,117.08,0,175.63-11.17,10.67-22.35,20.56-33.52,29.65-45.77-19.24-91.55-38.47-137.32-57.71-11.71-15.47-23.43-30.11-35.14-43.92v-117.08c11.17-8.84,22.34-18.46,33.51-28.85-11.17-10.3-22.34-19.82-33.51-28.56v-113.44c11.71-13.81,23.43-28.45,35.14-43.92,45.77-19.24,91.55-38.47,137.32-57.71,11.18,9.09,22.35,18.97,33.52,29.65Zm-76.24,64.98c-17.66,4.92-35.32,9.84-52.98,14.77-2.52,3.23-5.04,6.41-7.56,9.56,0,27.67,0,55.34,0,83.01,2.52,2.43,5.04,4.91,7.56,7.42,17.66-1.31,35.32-2.62,52.98-3.93,2.52-3.18,5.05-6.41,7.57-9.67,0-31.59,0-63.17,0-94.76-2.52-2.17-5.05-4.3-7.57-6.4Zm0,186.91c-17.66-1.17-35.32-2.34-52.98-3.52-2.52,2.54-5.04,5.03-7.56,7.48,0,29.09,0,58.18,0,87.27,2.52,3.15,5.04,6.34,7.56,9.56,17.66,4.94,35.32,9.88,52.98,14.82,2.52-2.09,5.05-4.22,7.57-6.38,0-33.21,0-66.42,0-99.62-2.52-3.25-5.05-6.45-7.57-9.61Z"/>
          <path class="cls-3" d="M1798.49,324.05v170.16c-10.08,15.18-20.17,29.58-30.25,43.2,10.08,13.52,20.17,27.83,30.25,42.91v175.63c-10.08,10.67-20.17,20.56-30.25,29.65-41.3-19.24-82.6-38.47-123.89-57.71-10.57-15.47-21.14-30.11-31.71-43.92,0-39.03,0-78.06,0-117.08,10.08-8.84,20.16-18.46,30.24-28.85-10.08-10.3-20.16-19.82-30.24-28.56,0-37.81,0-75.63,0-113.44,10.57-13.81,21.14-28.45,31.71-43.92,41.3-19.24,82.6-38.47,123.89-57.71,10.08,9.09,20.17,18.97,30.25,29.65Zm-68.78,64.98c-15.94,4.92-31.87,9.84-47.81,14.77-2.27,3.23-4.55,6.41-6.82,9.56,0,27.67,0,55.34,0,83.01,2.27,2.43,4.55,4.91,6.82,7.42,15.94-1.31,31.87-2.62,47.81-3.93,2.28-3.18,4.55-6.41,6.83-9.67,0-31.59,0-63.17,0-94.76-2.28-2.17-4.55-4.3-6.83-6.4Zm0,186.91c-15.94-1.17-31.87-2.34-47.81-3.52-2.27,2.53-4.55,5.03-6.82,7.48,0,29.09,0,58.18,0,87.27,2.27,3.15,4.55,6.34,6.82,9.56,15.94,4.94,31.87,9.88,47.81,14.82,2.28-2.09,4.55-4.22,6.83-6.38,0-33.21,0-66.42,0-99.62-2.28-3.25-4.55-6.45-6.83-9.61Z"/>
        </g>
      </g>
    </g>
    <g id="_Mirror_Repeat_-2" data-name="&amp;lt;Mirror Repeat&amp;gt;">
      <g class="cls-5">
        <g>
          <path class="cls-4" d="M1398.88,324.05c0,56.72,0,113.44,0,170.16,11.17,15.18,22.35,29.58,33.52,43.2-11.18,13.52-22.35,27.83-33.52,42.91,0,58.54,0,117.08,0,175.63,11.17,10.67,22.35,20.56,33.52,29.65,45.77-19.24,91.55-38.47,137.32-57.71,11.71-15.47,23.43-30.11,35.14-43.92,0-39.03,0-78.06,0-117.08-11.17-8.84-22.34-18.46-33.51-28.85,11.17-10.3,22.34-19.82,33.51-28.56v-113.44c-11.71-13.81-23.43-28.45-35.14-43.92-45.77-19.24-91.55-38.47-137.32-57.71-11.18,9.09-22.35,18.97-33.52,29.65Zm76.24,64.98c17.66,4.92,35.32,9.84,52.98,14.77,2.52,3.23,5.04,6.41,7.56,9.56,0,27.67,0,55.34,0,83.01-2.52,2.43-5.04,4.91-7.56,7.42-17.66-1.31-35.32-2.62-52.98-3.93-2.52-3.18-5.05-6.41-7.57-9.67,0-31.59,0-63.17,0-94.76,2.52-2.17,5.05-4.3,7.57-6.4Zm0,186.91c17.66-1.17,35.32-2.34,52.98-3.52,2.52,2.54,5.04,5.03,7.56,7.48,0,29.09,0,58.18,0,87.27-2.52,3.15-5.04,6.34-7.56,9.56-17.66,4.94-35.32,9.88-52.98,14.82-2.52-2.09-5.05-4.22-7.57-6.38,0-33.21,0-66.42,0-99.62,2.52-3.25,5.05-6.45,7.57-9.61Z"/>
          <path class="cls-3" d="M1422.62,324.05c0,56.72,0,113.44,0,170.16,10.08,15.18,20.17,29.58,30.25,43.2-10.08,13.52-20.17,27.83-30.25,42.91v175.63c10.08,10.67,20.17,20.56,30.25,29.65,41.3-19.24,82.6-38.47,123.89-57.71,10.57-15.47,21.14-30.11,31.71-43.92,0-39.03,0-78.06,0-117.08-10.08-8.84-20.16-18.46-30.24-28.85,10.08-10.3,20.16-19.82,30.24-28.56,0-37.81,0-75.63,0-113.44-10.57-13.81-21.14-28.45-31.71-43.92-41.3-19.24-82.6-38.47-123.89-57.71-10.08,9.09-20.17,18.97-30.25,29.65Zm68.78,64.98c15.94,4.92,31.87,9.84,47.81,14.77,2.27,3.23,4.55,6.41,6.82,9.56,0,27.67,0,55.34,0,83.01-2.27,2.43-4.55,4.91-6.82,7.42-15.94-1.31-31.87-2.62-47.81-3.93-2.28-3.18-4.55-6.41-6.83-9.67,0-31.59,0-63.17,0-94.76,2.28-2.17,4.55-4.3,6.83-6.4Zm0,186.91c15.94-1.17,31.87-2.34,47.81-3.52,2.27,2.53,4.55,5.03,6.82,7.48,0,29.09,0,58.18,0,87.27-2.27,3.15-4.55,6.34-6.82,9.56-15.94,4.94-31.87,9.88-47.81,14.82-2.28-2.09-4.55-4.22-6.83-6.38,0-33.21,0-66.42,0-99.62,2.28-3.25,4.55-6.45,6.83-9.61Z"/>
        </g>
      </g>
    </g>
  </g>
</svg>