<?xml version="1.0" encoding="UTF-8" standalone="no"?>
<svg xmlns="http://www.w3.org/2000/svg" xmlns:xlink="http://www.w3.org/1999/xlink" fill="#fa3c19" height="576.9" preserveAspectRatio="xMidYMid meet" version="1" viewBox="495.4 711.3 1009.3 576.9" width="1009.3" zoomAndPan="magnify"><g id="change1_1"><path d="M 999.847656 1135.921875 C 998.828125 1135.921875 997.808594 1135.53125 997.027344 1134.761719 L 968.949219 1106.910156 C 968.191406 1106.160156 967.765625 1105.128906 967.765625 1104.070312 L 967.765625 944.398438 C 967.765625 943.230469 968.273438 942.128906 969.152344 941.371094 L 997.386719 917.03125 C 999.0625 915.589844 1001.589844 915.769531 1003.03125 917.449219 C 1004.46875 919.121094 1004.28125 921.640625 1002.609375 923.089844 L 975.765625 946.230469 L 975.765625 1102.398438 L 1002.660156 1129.078125 C 1004.230469 1130.640625 1004.238281 1133.171875 1002.691406 1134.738281 C 1001.898438 1135.519531 1000.871094 1135.921875 999.847656 1135.921875" fill="inherit"/><path d="M 982.710938 937.398438 C 981.617188 937.398438 980.53125 936.960938 979.738281 936.078125 L 893.113281 840.128906 L 727.519531 781.371094 C 727.171875 781.25 726.84375 781.078125 726.546875 780.859375 L 639.242188 719.078125 C 637.4375 717.800781 637.011719 715.308594 638.285156 713.5 C 639.5625 711.699219 642.058594 711.269531 643.863281 712.550781 L 730.714844 774.011719 L 896.742188 832.929688 C 897.367188 833.148438 897.929688 833.519531 898.375 834.019531 L 985.679688 930.71875 C 987.15625 932.359375 987.03125 934.890625 985.390625 936.371094 C 984.625 937.058594 983.664062 937.398438 982.710938 937.398438" fill="inherit"/><path d="M 791.648438 1055.28125 C 793.03125 1055.28125 794.320312 1056 795.054688 1057.179688 C 795.835938 1058.449219 795.847656 1060.050781 795.085938 1061.328125 L 738.855469 1155.941406 L 889.21875 1119.800781 L 965.449219 974.210938 L 631.472656 786.109375 L 505.976562 822.101562 L 670.015625 1063.890625 L 791.367188 1055.289062 C 791.460938 1055.289062 791.554688 1055.28125 791.648438 1055.28125 Z M 894.621094 1126.730469 L 834.226562 1242.070312 L 949.457031 1141.160156 C 950.089844 1140.609375 950.859375 1140.28125 951.652344 1140.199219 L 964.886719 1109.839844 Z M 737.507812 1164.488281 L 818.691406 1254.5 L 884.289062 1129.210938 Z M 826.960938 1259.070312 L 933.382812 1279.289062 L 947.007812 1153.941406 Z M 937.6875 1288.191406 C 937.441406 1288.191406 937.191406 1288.160156 936.941406 1288.109375 L 819.136719 1265.71875 C 818.277344 1265.558594 817.496094 1265.121094 816.914062 1264.46875 L 727.34375 1165.160156 C 726.167969 1163.859375 725.976562 1161.949219 726.871094 1160.441406 L 784.304688 1063.808594 L 668.285156 1072.03125 C 666.851562 1072.140625 665.492188 1071.46875 664.691406 1070.289062 L 496.257812 822.019531 C 495.539062 820.960938 495.371094 819.621094 495.808594 818.410156 C 496.242188 817.210938 497.230469 816.28125 498.464844 815.929688 L 630.875 777.960938 C 631.90625 777.671875 633.007812 777.800781 633.941406 778.320312 L 972.753906 969.148438 C 974.636719 970.210938 975.339844 972.570312 974.335938 974.488281 L 899.550781 1117.308594 L 970.828125 1100.179688 C 972.304688 1099.820312 973.855469 1100.339844 974.828125 1101.5 C 975.804688 1102.660156 976.039062 1104.28125 975.433594 1105.671875 L 959.113281 1143.101562 L 941.660156 1284.671875 C 941.523438 1285.769531 940.941406 1286.769531 940.046875 1287.421875 C 939.355469 1287.921875 938.53125 1288.191406 937.6875 1288.191406" fill="inherit"/><path d="M 794.03125 1062.828125 C 793.121094 1062.828125 792.222656 1062.519531 791.492188 1061.921875 L 502.742188 824.921875 C 501.03125 823.519531 500.785156 821 502.1875 819.289062 C 503.589844 817.589844 506.109375 817.339844 507.816406 818.738281 L 794.566406 1054.101562 L 965.152344 969.171875 C 967.128906 968.191406 969.53125 968.988281 970.515625 970.96875 C 971.5 972.949219 970.695312 975.351562 968.71875 976.328125 L 795.8125 1062.410156 C 795.246094 1062.691406 794.636719 1062.828125 794.03125 1062.828125" fill="inherit"/><path d="M 668 1072.039062 C 667.511719 1072.039062 667.019531 1071.960938 666.546875 1071.769531 C 665.300781 1071.289062 664.378906 1070.210938 664.09375 1068.898438 L 634.617188 934.101562 C 634.570312 933.878906 634.539062 933.648438 634.53125 933.421875 L 627.980469 781.980469 C 627.886719 779.769531 629.597656 777.910156 631.804688 777.808594 C 634 777.71875 635.878906 779.429688 635.972656 781.628906 L 642.507812 932.730469 L 670.625 1061.320312 L 734.683594 1016.371094 L 737.566406 845.109375 C 737.605469 842.910156 739.433594 841.160156 741.632812 841.179688 C 743.84375 841.21875 745.601562 843.039062 745.566406 845.25 L 742.648438 1018.539062 C 742.628906 1019.820312 741.996094 1021.011719 740.945312 1021.75 L 670.300781 1071.320312 C 669.617188 1071.800781 668.8125 1072.039062 668 1072.039062" fill="inherit"/><path d="M 791.648438 1063.28125 C 791.21875 1063.28125 790.78125 1063.210938 790.347656 1063.070312 C 788.261719 1062.351562 787.148438 1060.070312 787.863281 1057.980469 L 841.0625 903.070312 C 841.78125 900.980469 844.058594 899.871094 846.144531 900.578125 C 848.234375 901.300781 849.347656 903.570312 848.628906 905.660156 L 795.433594 1060.578125 C 794.863281 1062.238281 793.308594 1063.28125 791.648438 1063.28125" fill="inherit"/><path d="M 1000.148438 1135.921875 C 999.125 1135.921875 998.097656 1135.53125 997.316406 1134.738281 C 995.757812 1133.171875 995.769531 1130.640625 997.339844 1129.078125 L 1024.238281 1102.398438 L 1024.238281 946.230469 L 997.390625 923.089844 C 995.714844 921.640625 995.527344 919.121094 996.972656 917.449219 C 998.414062 915.769531 1000.941406 915.589844 1002.609375 917.03125 L 1030.851562 941.371094 C 1031.730469 942.128906 1032.238281 943.230469 1032.238281 944.398438 L 1032.238281 1104.070312 C 1032.238281 1105.128906 1031.808594 1106.160156 1031.050781 1106.910156 L 1002.96875 1134.761719 C 1002.191406 1135.53125 1001.171875 1135.921875 1000.148438 1135.921875" fill="inherit"/><path d="M 1017.289062 937.398438 C 1016.328125 937.398438 1015.378906 937.058594 1014.609375 936.371094 C 1012.96875 934.890625 1012.839844 932.359375 1014.320312 930.71875 L 1101.628906 834.019531 C 1102.070312 833.519531 1102.628906 833.148438 1103.261719 832.929688 L 1269.289062 774.011719 L 1356.140625 712.550781 C 1357.941406 711.269531 1360.441406 711.699219 1361.710938 713.5 C 1362.988281 715.308594 1362.558594 717.800781 1360.761719 719.078125 L 1273.460938 780.859375 C 1273.160156 781.078125 1272.828125 781.25 1272.480469 781.371094 L 1106.890625 840.128906 L 1020.261719 936.078125 C 1019.46875 936.960938 1018.378906 937.398438 1017.289062 937.398438" fill="inherit"/><path d="M 1110.78125 1119.800781 L 1261.148438 1155.941406 L 1204.910156 1061.328125 C 1204.148438 1060.050781 1204.171875 1058.449219 1204.949219 1057.179688 C 1205.730469 1055.921875 1207.140625 1055.191406 1208.640625 1055.289062 L 1329.980469 1063.890625 L 1494.019531 822.101562 L 1368.53125 786.109375 L 1034.550781 974.210938 Z M 1048.351562 1140.199219 C 1049.140625 1140.28125 1049.910156 1140.609375 1050.539062 1141.160156 L 1165.769531 1242.070312 L 1105.378906 1126.730469 L 1035.109375 1109.839844 Z M 1115.710938 1129.210938 L 1181.308594 1254.5 L 1262.488281 1164.488281 Z M 1052.988281 1153.941406 L 1066.621094 1279.289062 L 1173.039062 1259.070312 Z M 1062.308594 1288.191406 C 1061.46875 1288.191406 1060.640625 1287.921875 1059.949219 1287.421875 C 1059.058594 1286.769531 1058.480469 1285.769531 1058.339844 1284.671875 L 1040.890625 1143.101562 L 1024.570312 1105.671875 C 1023.960938 1104.28125 1024.199219 1102.660156 1025.171875 1101.5 C 1026.148438 1100.339844 1027.691406 1099.820312 1029.171875 1100.179688 L 1100.449219 1117.308594 L 1025.671875 974.488281 C 1024.660156 972.570312 1025.359375 970.210938 1027.25 969.148438 L 1366.058594 778.320312 C 1366.988281 777.789062 1368.101562 777.671875 1369.128906 777.960938 L 1501.539062 815.929688 C 1502.769531 816.28125 1503.761719 817.210938 1504.191406 818.410156 C 1504.628906 819.621094 1504.460938 820.960938 1503.738281 822.019531 L 1335.308594 1070.289062 C 1334.511719 1071.46875 1333.140625 1072.140625 1331.71875 1072.03125 L 1215.699219 1063.808594 L 1273.128906 1160.441406 C 1274.019531 1161.949219 1273.828125 1163.859375 1272.660156 1165.160156 L 1183.089844 1264.46875 C 1182.5 1265.121094 1181.71875 1265.558594 1180.859375 1265.71875 L 1063.058594 1288.109375 C 1062.808594 1288.160156 1062.558594 1288.191406 1062.308594 1288.191406" fill="inherit"/><path d="M 1205.96875 1062.828125 C 1205.359375 1062.828125 1204.75 1062.691406 1204.191406 1062.410156 L 1031.28125 976.328125 C 1029.300781 975.351562 1028.5 972.949219 1029.480469 970.96875 C 1030.46875 968.988281 1032.871094 968.191406 1034.851562 969.171875 L 1205.429688 1054.101562 L 1492.179688 818.738281 C 1493.890625 817.339844 1496.410156 817.589844 1497.808594 819.289062 C 1499.21875 821 1498.96875 823.519531 1497.261719 824.921875 L 1208.511719 1061.921875 C 1207.78125 1062.519531 1206.878906 1062.828125 1205.96875 1062.828125" fill="inherit"/><path d="M 1332 1072.039062 C 1331.191406 1072.039062 1330.390625 1071.800781 1329.699219 1071.320312 L 1259.050781 1021.75 C 1258.011719 1021.011719 1257.371094 1019.820312 1257.351562 1018.539062 L 1254.429688 845.25 C 1254.398438 843.039062 1256.160156 841.21875 1258.371094 841.179688 C 1260.621094 841.160156 1262.398438 842.910156 1262.429688 845.109375 L 1265.320312 1016.371094 L 1329.378906 1061.320312 L 1357.488281 932.730469 L 1364.03125 781.628906 C 1364.121094 779.421875 1366.011719 777.71875 1368.199219 777.808594 C 1370.398438 777.910156 1372.109375 779.769531 1372.019531 781.980469 L 1365.46875 933.421875 C 1365.460938 933.648438 1365.429688 933.878906 1365.378906 934.101562 L 1335.910156 1068.898438 C 1335.621094 1070.210938 1334.699219 1071.289062 1333.449219 1071.769531 C 1332.980469 1071.949219 1332.488281 1072.039062 1332 1072.039062" fill="inherit"/><path d="M 1208.351562 1063.28125 C 1206.691406 1063.28125 1205.140625 1062.238281 1204.570312 1060.578125 L 1151.371094 905.660156 C 1150.648438 903.570312 1151.761719 901.300781 1153.851562 900.578125 C 1155.941406 899.859375 1158.21875 900.980469 1158.941406 903.070312 L 1212.140625 1057.980469 C 1212.851562 1060.070312 1211.738281 1062.351562 1209.648438 1063.070312 C 1209.21875 1063.210938 1208.78125 1063.28125 1208.351562 1063.28125" fill="inherit"/><path d="M 1026.070312 978.78125 L 973.363281 978.78125 C 971.15625 978.78125 969.363281 976.988281 969.363281 974.78125 C 969.363281 972.570312 971.15625 970.78125 973.363281 970.78125 L 1026.070312 970.78125 C 1028.28125 970.78125 1030.070312 972.570312 1030.070312 974.78125 C 1030.070312 976.988281 1028.28125 978.78125 1026.070312 978.78125" fill="inherit"/><path d="M 1026.070312 1016.828125 L 973.363281 1016.828125 C 971.15625 1016.828125 969.363281 1015.039062 969.363281 1012.828125 C 969.363281 1010.628906 971.15625 1008.828125 973.363281 1008.828125 L 1026.070312 1008.828125 C 1028.28125 1008.828125 1030.070312 1010.628906 1030.070312 1012.828125 C 1030.070312 1015.039062 1028.28125 1016.828125 1026.070312 1016.828125" fill="inherit"/><path d="M 1026.070312 1060.550781 L 973.363281 1060.550781 C 971.15625 1060.550781 969.363281 1058.761719 969.363281 1056.550781 C 969.363281 1054.339844 971.15625 1052.550781 973.363281 1052.550781 L 1026.070312 1052.550781 C 1028.28125 1052.550781 1030.070312 1054.339844 1030.070312 1056.550781 C 1030.070312 1058.761719 1028.28125 1060.550781 1026.070312 1060.550781" fill="inherit"/><path d="M 1026.070312 1104.96875 L 973.363281 1104.96875 C 971.15625 1104.96875 969.363281 1103.179688 969.363281 1100.96875 C 969.363281 1098.761719 971.15625 1096.96875 973.363281 1096.96875 L 1026.070312 1096.96875 C 1028.28125 1096.96875 1030.070312 1098.761719 1030.070312 1100.96875 C 1030.070312 1103.179688 1028.28125 1104.96875 1026.070312 1104.96875" fill="inherit"/></g></svg>