<?xml version="1.0" encoding="UTF-8" standalone="no"?>
<svg
   id="Layer_3"
   data-name="Layer 3"
   viewBox="0 0 1724.4603 491.19"
   version="1.1"
   sodipodi:docname="logo.svg"
   width="1724.4603"
   height="491.19"
   inkscape:version="1.2 (1:1.2.1+202207142221+cd75a1ee6d)"
   xmlns:inkscape="http://www.inkscape.org/namespaces/inkscape"
   xmlns:sodipodi="http://sodipodi.sourceforge.net/DTD/sodipodi-0.dtd"
   xmlns="http://www.w3.org/2000/svg"
   xmlns:svg="http://www.w3.org/2000/svg">
  <sodipodi:namedview
     id="namedview159"
     pagecolor="#ffffff"
     bordercolor="#000000"
     borderopacity="0.25"
     inkscape:showpageshadow="2"
     inkscape:pageopacity="0.0"
     inkscape:pagecheckerboard="0"
     inkscape:deskcolor="#d1d1d1"
     showgrid="false"
     inkscape:zoom="0.65208333"
     inkscape:cx="861.85304"
     inkscape:cy="246.13419"
     inkscape:window-width="1920"
     inkscape:window-height="1044"
     inkscape:window-x="1920"
     inkscape:window-y="0"
     inkscape:window-maximized="1"
     inkscape:current-layer="Layer_3" />
  <defs
     id="defs118">
    <style
       id="style110">
      .cls-1 {
        fill: none;
      }

      .cls-2 {
        clip-path: url(#clippath);
      }

      .cls-3 {
        fill: #dae1e9;
      }

      .cls-4 {
        fill: #5c7f95;
      }

      .cls-5 {
        clip-path: url(#clippath-1);
      }
    </style>
    <clipPath
       id="clippath">
      <rect
         class="cls-1"
         x="1612.64"
         y="294.39999"
         width="209.59"
         height="491.20001"
         id="rect112" />
    </clipPath>
    <clipPath
       id="clippath-1">
      <rect
         class="cls-1"
         x="1398.88"
         y="294.39999"
         width="209.59"
         height="491.20001"
         id="rect115" />
    </clipPath>
  </defs>
  <g
     id="g136"
     transform="translate(-97.769667,-294.41)">
    <path
       class="cls-3"
       d="m 98.04,679.45 3.87,-11.61 c 0.15,-0.45 0.23,-0.92 0.23,-1.4 V 417.51 c 0,-0.47 -0.07,-0.93 -0.22,-1.37 l -3.93,-12.03 c -0.93,-2.86 1.2,-5.8 4.21,-5.8 h 117.46 c 1.15,0 2.26,0.45 3.08,1.25 l 21.53,20.86 c 0.86,0.83 1.35,1.98 1.35,3.18 v 126.94 c 0,1.17 -0.47,2.3 -1.3,3.13 l -21.13,21.13 c -1.08,1.08 -1.53,2.64 -1.18,4.13 l 20.14,86.78 c 0.05,0.21 0.11,0.42 0.19,0.62 l 5.06,12.91 c 1.14,2.9 -1,6.05 -4.12,6.05 h -47.2 c -2.85,0 -4.96,-2.66 -4.31,-5.44 l 2.64,-11.3 c 0.16,-0.67 0.16,-1.36 0,-2.03 l -20.15,-85.46 -3.78,-4.53 H 155 l -5.66,5.66 v 84.24 c 0,0.48 0.08,0.95 0.23,1.4 l 3.87,11.61 c 0.96,2.87 -1.18,5.83 -4.2,5.83 h -46.99 c -3.02,0 -5.16,-2.96 -4.2,-5.83 z m 93.97,-150.5 5.66,-5.29 v -71.74 l -5.66,-5.29 H 155 l -5.66,5.29 v 71.74 l 5.66,5.29 z"
       id="path120" />
    <path
       class="cls-3"
       d="m 416.49,423.56 v 236.09 c 0,1.17 -0.47,2.3 -1.3,3.13 L 394,683.97 c -0.83,0.83 -1.96,1.3 -3.13,1.3 h -91.89 c -1.16,0 -2.28,-0.46 -3.11,-1.27 L 274.32,662.79 C 273.47,661.96 273,660.82 273,659.63 V 423.58 c 0,-1.2 0.49,-2.35 1.35,-3.18 l 21.53,-20.86 c 0.83,-0.8 1.93,-1.25 3.08,-1.25 h 91.93 c 1.16,0 2.28,0.46 3.11,1.27 l 21.17,20.84 c 0.85,0.83 1.32,1.97 1.32,3.16 z m -54,23.07 h -36.25 l -5.66,5.29 v 180.12 l 5.66,5.29 h 36.25 l 5.66,-5.29 V 451.92 Z"
       id="path122" />
    <path
       class="cls-3"
       d="M 446.98,398.29 H 564.4 c 1.15,0 2.26,0.45 3.08,1.25 l 21.53,20.86 c 0.86,0.83 1.35,1.98 1.35,3.18 v 89.9 c 0,1.2 -0.49,2.35 -1.35,3.18 l -19.94,19.33 c -1.79,1.73 -1.8,4.59 -0.02,6.34 l 19.99,19.69 c 0.85,0.83 1.32,1.97 1.32,3.16 v 94.47 c 0,1.19 -0.48,2.32 -1.32,3.16 l -21.55,21.21 c -0.83,0.82 -1.94,1.27 -3.11,1.27 H 446.94 c -3.01,0 -5.14,-2.94 -4.21,-5.8 l 3.93,-12.03 c 0.14,-0.44 0.22,-0.91 0.22,-1.37 V 417.16 c 0,-0.48 -0.08,-0.95 -0.23,-1.4 l -3.87,-11.61 c -0.96,-2.87 1.18,-5.83 4.2,-5.83 z m 47.47,111.77 5.66,5.29 h 36.63 l 5.66,-5.29 v -58.91 l -5.66,-5.66 h -36.63 l -5.66,5.66 z m 42.29,53.24 h -36.63 l -5.66,5.67 v 62.3 l 5.66,5.66 h 36.63 l 5.66,-5.66 v -62.3 z"
       id="path124" />
    <path
       class="cls-3"
       d="m 761.22,423.56 v 236.09 c 0,1.17 -0.47,2.3 -1.3,3.13 l -21.19,21.19 c -0.83,0.83 -1.96,1.3 -3.13,1.3 h -91.89 c -1.16,0 -2.28,-0.46 -3.11,-1.27 l -21.55,-21.21 c -0.85,-0.83 -1.32,-1.97 -1.32,-3.16 V 423.58 c 0,-1.2 0.49,-2.35 1.35,-3.18 l 21.53,-20.86 c 0.83,-0.8 1.93,-1.25 3.08,-1.25 h 91.93 c 1.16,0 2.28,0.46 3.11,1.27 l 21.17,20.84 c 0.85,0.83 1.32,1.97 1.32,3.16 z m -54,23.07 h -36.25 l -5.66,5.29 v 180.12 l 5.66,5.29 h 36.25 l 5.66,-5.29 V 451.92 Z"
       id="path126" />
    <path
       class="cls-3"
       d="m 940.19,450.2 -13.23,-3.43 c -0.36,-0.09 -0.74,-0.14 -1.11,-0.14 h -35.31 l -5.29,5.29 v 214.52 c 0,0.48 0.08,0.95 0.23,1.4 l 3.87,11.61 c 0.96,2.87 -1.18,5.83 -4.2,5.83 H 837.4 c -3.02,0 -5.16,-2.96 -4.2,-5.83 l 3.87,-11.61 c 0.15,-0.45 0.23,-0.92 0.23,-1.4 V 451.92 l -5.66,-5.29 H 795.6 c -0.39,0 -0.78,0.05 -1.15,0.15 L 782,450.13 c -3.1,0.84 -6.04,-1.81 -5.52,-4.98 l 6.98,-43.13 c 0.35,-2.14 2.2,-3.72 4.37,-3.72 h 146.18 c 2.16,0 4.01,1.56 4.37,3.69 l 7.3,43.19 c 0.54,3.17 -2.37,5.83 -5.48,5.03 z"
       id="path128" />
    <path
       class="cls-3"
       d="m 1011.07,685.28 h -46.99 c -3.02,0 -5.16,-2.96 -4.2,-5.83 l 3.87,-11.61 c 0.15,-0.45 0.23,-0.92 0.23,-1.4 V 417.51 c 0,-0.47 -0.07,-0.93 -0.22,-1.37 l -3.93,-12.03 c -0.93,-2.86 1.2,-5.8 4.21,-5.8 h 47.07 c 3.01,0 5.14,2.94 4.21,5.8 l -3.93,12.03 c -0.14,0.44 -0.22,0.91 -0.22,1.37 v 248.93 c 0,0.48 0.08,0.95 0.23,1.4 l 3.87,11.61 c 0.96,2.87 -1.18,5.83 -4.2,5.83 z"
       id="path130" />
    <path
       class="cls-3"
       d="M 1041.55,659.63 V 423.58 c 0,-1.2 0.49,-2.35 1.35,-3.18 l 21.53,-20.86 c 0.83,-0.8 1.93,-1.25 3.08,-1.25 h 91.93 c 1.16,0 2.28,0.46 3.11,1.27 l 21.17,20.84 c 0.85,0.83 1.32,1.97 1.32,3.16 v 45.76 c 0,0.48 0.08,0.95 0.23,1.4 l 3.87,11.61 c 0.96,2.87 -1.18,5.83 -4.2,5.83 h -47.63 c -3.06,0 -5.2,-3.03 -4.17,-5.91 l 4.07,-11.5 c 0.17,-0.47 0.25,-0.97 0.25,-1.48 v -18.12 l -5.29,-5.66 h -37.38 l -5.66,5.66 v 180.12 l 5.66,5.66 h 37.38 l 5.29,-5.66 v -17.74 c 0,-0.5 -0.09,-1 -0.25,-1.48 l -4.07,-11.5 c -1.02,-2.88 1.12,-5.91 4.17,-5.91 h 47.63 c 3.02,0 5.16,2.96 4.2,5.83 l -3.87,11.61 c -0.15,0.45 -0.23,0.92 -0.23,1.4 v 46.16 c 0,1.17 -0.47,2.3 -1.3,3.13 l -21.19,21.19 c -0.83,0.83 -1.96,1.3 -3.13,1.3 h -91.89 c -1.16,0 -2.28,-0.46 -3.11,-1.27 l -21.55,-21.21 c -0.85,-0.83 -1.32,-1.97 -1.32,-3.16 z"
       id="path132" />
    <path
       class="cls-3"
       d="m 1359.07,488.92 h -47.75 c -2.99,0 -5.12,-2.9 -4.23,-5.75 l 3.67,-11.73 c 0.13,-0.43 0.2,-0.87 0.2,-1.32 v -18.2 l -5.66,-5.29 h -36.63 l -5.66,5.29 v 60.42 l 5.66,5.66 h 64.62 c 1.17,0 2.3,0.47 3.13,1.3 l 21.19,21.19 c 0.83,0.83 1.3,1.96 1.3,3.13 v 116.03 c 0,1.17 -0.47,2.3 -1.3,3.13 l -21.19,21.19 c -0.83,0.83 -1.96,1.3 -3.13,1.3 h -91.93 c -1.14,0 -2.23,-0.44 -3.06,-1.23 l -22.27,-21.25 c -0.88,-0.84 -1.37,-1.99 -1.37,-3.2 v -45.81 c 0,-0.42 -0.06,-0.84 -0.18,-1.24 l -3.46,-11.85 c -0.83,-2.83 1.3,-5.67 4.25,-5.67 h 47.61 c 3.02,0 5.16,2.96 4.2,5.83 l -3.87,11.61 c -0.15,0.45 -0.23,0.92 -0.23,1.4 v 18.16 l 5.66,5.29 h 36.63 l 5.66,-5.29 V 571.6 l -5.66,-5.67 h -63.91 c -1.15,0 -2.26,-0.45 -3.08,-1.25 l -22.29,-21.61 c -0.86,-0.83 -1.35,-1.98 -1.35,-3.18 V 423.6 c 0,-1.22 0.51,-2.39 1.4,-3.23 l 22.24,-20.9 c 0.82,-0.77 1.91,-1.2 3.03,-1.2 h 91.97 c 1.16,0 2.28,0.46 3.11,1.27 l 21.17,20.84 c 0.85,0.83 1.32,1.97 1.32,3.16 v 46.47 c 0,0.5 0.09,1 0.25,1.48 l 4.07,11.5 c 1.02,2.88 -1.12,5.91 -4.17,5.91 z"
       id="path134" />
  </g>
  <g
     id="g156"
     transform="translate(-97.769667,-294.41)">
    <g
       id="_Mirror_Repeat_"
       data-name="&amp;lt;Mirror Repeat&amp;gt;">
      <g
         class="cls-2"
         clip-path="url(#clippath)"
         id="g144">
        <g
           id="g142">
          <path
             class="cls-4"
             d="m 1822.23,324.05 c 0,56.72 0,113.44 0,170.16 -11.17,15.18 -22.35,29.58 -33.52,43.2 11.18,13.52 22.35,27.83 33.52,42.91 0,58.54 0,117.08 0,175.63 -11.17,10.67 -22.35,20.56 -33.52,29.65 -45.77,-19.24 -91.55,-38.47 -137.32,-57.71 -11.71,-15.47 -23.43,-30.11 -35.14,-43.92 V 566.89 c 11.17,-8.84 22.34,-18.46 33.51,-28.85 -11.17,-10.3 -22.34,-19.82 -33.51,-28.56 V 396.04 c 11.71,-13.81 23.43,-28.45 35.14,-43.92 45.77,-19.24 91.55,-38.47 137.32,-57.71 11.18,9.09 22.35,18.97 33.52,29.65 z m -76.24,64.98 c -17.66,4.92 -35.32,9.84 -52.98,14.77 -2.52,3.23 -5.04,6.41 -7.56,9.56 0,27.67 0,55.34 0,83.01 2.52,2.43 5.04,4.91 7.56,7.42 17.66,-1.31 35.32,-2.62 52.98,-3.93 2.52,-3.18 5.05,-6.41 7.57,-9.67 0,-31.59 0,-63.17 0,-94.76 -2.52,-2.17 -5.05,-4.3 -7.57,-6.4 z m 0,186.91 c -17.66,-1.17 -35.32,-2.34 -52.98,-3.52 -2.52,2.54 -5.04,5.03 -7.56,7.48 0,29.09 0,58.18 0,87.27 2.52,3.15 5.04,6.34 7.56,9.56 17.66,4.94 35.32,9.88 52.98,14.82 2.52,-2.09 5.05,-4.22 7.57,-6.38 0,-33.21 0,-66.42 0,-99.62 -2.52,-3.25 -5.05,-6.45 -7.57,-9.61 z"
             id="path138" />
          <path
             class="cls-3"
             d="m 1798.49,324.05 v 170.16 c -10.08,15.18 -20.17,29.58 -30.25,43.2 10.08,13.52 20.17,27.83 30.25,42.91 v 175.63 c -10.08,10.67 -20.17,20.56 -30.25,29.65 -41.3,-19.24 -82.6,-38.47 -123.89,-57.71 -10.57,-15.47 -21.14,-30.11 -31.71,-43.92 0,-39.03 0,-78.06 0,-117.08 10.08,-8.84 20.16,-18.46 30.24,-28.85 -10.08,-10.3 -20.16,-19.82 -30.24,-28.56 0,-37.81 0,-75.63 0,-113.44 10.57,-13.81 21.14,-28.45 31.71,-43.92 41.3,-19.24 82.6,-38.47 123.89,-57.71 10.08,9.09 20.17,18.97 30.25,29.65 z m -68.78,64.98 c -15.94,4.92 -31.87,9.84 -47.81,14.77 -2.27,3.23 -4.55,6.41 -6.82,9.56 0,27.67 0,55.34 0,83.01 2.27,2.43 4.55,4.91 6.82,7.42 15.94,-1.31 31.87,-2.62 47.81,-3.93 2.28,-3.18 4.55,-6.41 6.83,-9.67 0,-31.59 0,-63.17 0,-94.76 -2.28,-2.17 -4.55,-4.3 -6.83,-6.4 z m 0,186.91 c -15.94,-1.17 -31.87,-2.34 -47.81,-3.52 -2.27,2.53 -4.55,5.03 -6.82,7.48 0,29.09 0,58.18 0,87.27 2.27,3.15 4.55,6.34 6.82,9.56 15.94,4.94 31.87,9.88 47.81,14.82 2.28,-2.09 4.55,-4.22 6.83,-6.38 0,-33.21 0,-66.42 0,-99.62 -2.28,-3.25 -4.55,-6.45 -6.83,-9.61 z"
             id="path140" />
        </g>
      </g>
    </g>
    <g
       id="_Mirror_Repeat_-2"
       data-name="&amp;lt;Mirror Repeat&amp;gt;">
      <g
         class="cls-5"
         clip-path="url(#clippath-1)"
         id="g153">
        <g
           id="g151">
          <path
             class="cls-4"
             d="m 1398.88,324.05 c 0,56.72 0,113.44 0,170.16 11.17,15.18 22.35,29.58 33.52,43.2 -11.18,13.52 -22.35,27.83 -33.52,42.91 0,58.54 0,117.08 0,175.63 11.17,10.67 22.35,20.56 33.52,29.65 45.77,-19.24 91.55,-38.47 137.32,-57.71 11.71,-15.47 23.43,-30.11 35.14,-43.92 0,-39.03 0,-78.06 0,-117.08 -11.17,-8.84 -22.34,-18.46 -33.51,-28.85 11.17,-10.3 22.34,-19.82 33.51,-28.56 V 396.04 c -11.71,-13.81 -23.43,-28.45 -35.14,-43.92 -45.77,-19.24 -91.55,-38.47 -137.32,-57.71 -11.18,9.09 -22.35,18.97 -33.52,29.65 z m 76.24,64.98 c 17.66,4.92 35.32,9.84 52.98,14.77 2.52,3.23 5.04,6.41 7.56,9.56 0,27.67 0,55.34 0,83.01 -2.52,2.43 -5.04,4.91 -7.56,7.42 -17.66,-1.31 -35.32,-2.62 -52.98,-3.93 -2.52,-3.18 -5.05,-6.41 -7.57,-9.67 0,-31.59 0,-63.17 0,-94.76 2.52,-2.17 5.05,-4.3 7.57,-6.4 z m 0,186.91 c 17.66,-1.17 35.32,-2.34 52.98,-3.52 2.52,2.54 5.04,5.03 7.56,7.48 0,29.09 0,58.18 0,87.27 -2.52,3.15 -5.04,6.34 -7.56,9.56 -17.66,4.94 -35.32,9.88 -52.98,14.82 -2.52,-2.09 -5.05,-4.22 -7.57,-6.38 0,-33.21 0,-66.42 0,-99.62 2.52,-3.25 5.05,-6.45 7.57,-9.61 z"
             id="path147" />
          <path
             class="cls-3"
             d="m 1422.62,324.05 c 0,56.72 0,113.44 0,170.16 10.08,15.18 20.17,29.58 30.25,43.2 -10.08,13.52 -20.17,27.83 -30.25,42.91 v 175.63 c 10.08,10.67 20.17,20.56 30.25,29.65 41.3,-19.24 82.6,-38.47 123.89,-57.71 10.57,-15.47 21.14,-30.11 31.71,-43.92 0,-39.03 0,-78.06 0,-117.08 -10.08,-8.84 -20.16,-18.46 -30.24,-28.85 10.08,-10.3 20.16,-19.82 30.24,-28.56 0,-37.81 0,-75.63 0,-113.44 -10.57,-13.81 -21.14,-28.45 -31.71,-43.92 -41.3,-19.24 -82.6,-38.47 -123.89,-57.71 -10.08,9.09 -20.17,18.97 -30.25,29.65 z m 68.78,64.98 c 15.94,4.92 31.87,9.84 47.81,14.77 2.27,3.23 4.55,6.41 6.82,9.56 0,27.67 0,55.34 0,83.01 -2.27,2.43 -4.55,4.91 -6.82,7.42 -15.94,-1.31 -31.87,-2.62 -47.81,-3.93 -2.28,-3.18 -4.55,-6.41 -6.83,-9.67 0,-31.59 0,-63.17 0,-94.76 2.28,-2.17 4.55,-4.3 6.83,-6.4 z m 0,186.91 c 15.94,-1.17 31.87,-2.34 47.81,-3.52 2.27,2.53 4.55,5.03 6.82,7.48 0,29.09 0,58.18 0,87.27 -2.27,3.15 -4.55,6.34 -6.82,9.56 -15.94,4.94 -31.87,9.88 -47.81,14.82 -2.28,-2.09 -4.55,-4.22 -6.83,-6.38 0,-33.21 0,-66.42 0,-99.62 2.28,-3.25 4.55,-6.45 6.83,-9.61 z"
             id="path149" />
        </g>
      </g>
    </g>
  </g>
</svg>
